<svg width="512" height="512" viewBox="0 0 512 512" fill="none" xmlns="http://www.w3.org/2000/svg">
<path fill-rule="evenodd" clip-rule="evenodd" d="M470.448 354.053L347.801 474.697C322.496 499.589 289.226 512 256.026 512C222.757 512 189.487 499.589 164.182 474.697L41.605 354.053C-13.8683 299.555 -13.8683 211.083 41.605 156.585L161.715 38.4366C188.782 11.7423 225.576 -1.98621 264.273 0.232535C297.614 2.24327 328.84 17.2891 352.453 40.586L470.448 156.585C525.851 211.083 525.851 299.555 470.448 354.053ZM61.1299 334.847L87.2806 360.64L86.9281 338.245L86.9986 337.898C88.2674 296.92 100.25 265.026 122.524 243.046L270.758 97.3026V347.466L370.497 249.356C389.317 230.774 398.199 204.773 397.564 169.689C396.719 139.112 384.031 109.991 362.039 88.3583L330.813 57.6426C309.315 36.4952 280.133 25.5401 249.471 27.3428C223.039 28.9376 198.227 40.8633 179.478 59.3066L61.1299 175.791C16.4411 219.68 16.4411 290.957 61.1299 334.847ZM450.923 175.791L424.631 149.928L425.125 169.135C425.9 211.429 414.129 244.849 390.022 268.562L243.127 412.988V162.825L142.049 262.252C124.921 279.101 115.687 304.755 114.559 338.453V339.77C115.052 370.832 127.811 400.508 150.155 422.488L183.707 455.491C223.673 494.735 288.38 494.735 328.276 455.491L450.923 334.847C495.541 290.957 495.541 219.68 450.923 175.791Z" fill="#0E3863"/>
</svg>
