<svg width="191" height="154" viewBox="0 0 191 154" fill="none" xmlns="http://www.w3.org/2000/svg">
<path fill-rule="evenodd" clip-rule="evenodd" d="M125.93 50.2313L108.53 67.3477C104.94 70.8792 100.22 72.64 95.51 72.64C90.79 72.64 86.07 70.8792 82.48 67.3477L65.09 50.2313C57.22 42.4994 57.22 29.9474 65.09 22.2155L82.13 5.45319C85.97 1.66594 91.19 -0.281794 96.68 0.0329909C101.41 0.318264 105.84 2.4529 109.19 5.75813L125.93 22.2155C133.79 29.9474 133.79 42.4994 125.93 50.2313ZM67.86 47.5064L71.57 51.1658L71.52 47.9884L71.53 47.9393C71.71 42.1256 73.41 37.6006 76.57 34.4822L97.6 13.8048V49.2968L111.75 35.3774C114.42 32.7411 115.68 29.0522 115.59 24.0747C115.47 19.7365 113.67 15.605 110.55 12.5358L106.12 8.17804C103.07 5.17775 98.93 3.6235 94.58 3.87926C90.83 4.10551 87.31 5.79748 84.65 8.41413L67.86 24.9403C61.52 31.1671 61.52 41.2796 67.86 47.5064ZM123.16 24.9403L119.43 21.2711L119.5 23.996C119.61 29.9965 117.94 34.738 114.52 38.1022L93.68 58.5927V23.1008L79.34 37.2071C76.91 39.5975 75.6 43.2372 75.44 48.018V48.2049C75.51 52.6118 77.32 56.8221 80.49 59.9404L85.25 64.6228C90.92 70.1906 100.1 70.1906 105.76 64.6228L123.16 47.5064C129.49 41.2796 129.49 31.1671 123.16 24.9403Z" fill="#0E3863"/>
<path d="M139.84 129.234L138.35 127.734L136.85 129.234L138.35 130.734L139.84 129.234Z" fill="#0E3863"/>
<path fill-rule="evenodd" clip-rule="evenodd" d="M137.78 130.524L137.05 129.794C136.74 129.484 136.74 128.974 137.05 128.664L137.78 127.934C138.09 127.624 138.6 127.624 138.91 127.934L139.64 128.664C139.95 128.974 139.95 129.484 139.64 129.794L138.91 130.524C138.6 130.844 138.09 130.844 137.78 130.524ZM137.78 129.794C138.09 130.114 138.6 130.114 138.91 129.794C139.23 129.484 139.23 128.974 138.91 128.664C138.6 128.354 138.09 128.354 137.78 128.664C137.47 128.974 137.47 129.484 137.78 129.794Z" fill="#0E3863"/>
<path d="M190.3 129.234L188.8 127.734L187.3 129.234L188.8 130.734L190.3 129.234Z" fill="#0E3863"/>
<path fill-rule="evenodd" clip-rule="evenodd" d="M188.24 130.524L187.51 129.794C187.19 129.484 187.19 128.974 187.51 128.664L188.24 127.934C188.55 127.624 189.06 127.624 189.37 127.934L190.1 128.664C190.41 128.974 190.41 129.484 190.1 129.794L189.37 130.524C189.06 130.844 188.55 130.844 188.24 130.524ZM188.24 129.794C188.55 130.114 189.06 130.114 189.37 129.794C189.68 129.484 189.68 128.974 189.37 128.664C189.06 128.354 188.55 128.354 188.24 128.664C187.92 128.974 187.92 129.484 188.24 129.794Z" fill="#0E3863"/>
<path d="M187.49 133.204H189.61V147.324H187.49V133.204Z" fill="#0E3863"/>
<path fill-rule="evenodd" clip-rule="evenodd" d="M189.87 147.584H187.23V132.944H189.87V147.584ZM187.75 147.074H189.35V133.464H187.75V147.074Z" fill="#0E3863"/>
<path d="M0.649994 147.324V127.784H4.71999L12.2 145.404H12.8V127.784H14.94V147.324H10.96L3.35999 129.704H2.82999V147.324H0.649994Z" fill="#0E3863"/>
<path fill-rule="evenodd" clip-rule="evenodd" d="M15.2 147.584H10.79L10.72 147.424L3.18999 129.954H3.08999V147.584H0.399994V127.524H4.89L4.96 127.684L12.37 145.144H12.54V127.524H15.2V147.584ZM11.13 147.064H14.68V128.044H13.05V145.664H12.03L11.97 145.504L4.55 128.044H0.909994V147.064H2.57V129.444H3.52999L3.59999 129.604L11.13 147.064Z" fill="#0E3863"/>
<path fill-rule="evenodd" clip-rule="evenodd" d="M19.07 140.234C19.07 138.934 19.1767 137.824 19.39 136.904C19.6033 135.977 19.9567 135.22 20.45 134.634C20.9367 134.034 21.5667 133.6 22.34 133.334C23.1133 133.06 24.0467 132.924 25.14 132.924C26.2267 132.924 27.1533 133.06 27.92 133.334C28.68 133.6 29.3 134.034 29.78 134.634C30.26 135.22 30.61 135.977 30.83 136.904C31.0433 137.824 31.15 138.934 31.15 140.234C31.15 141.534 31.0533 142.644 30.86 143.564C30.66 144.49 30.3233 145.254 29.85 145.854C29.3833 146.454 28.7633 146.897 27.99 147.184C27.2167 147.464 26.2567 147.604 25.11 147.604C23.9633 147.604 23.0033 147.464 22.23 147.184C21.4567 146.897 20.8333 146.454 20.36 145.854C19.8933 145.254 19.56 144.49 19.36 143.564C19.16 142.644 19.0633 141.534 19.07 140.234ZM21.24 140.174C21.24 141.214 21.2933 142.087 21.4 142.794C21.5 143.5 21.6967 144.074 21.99 144.514C22.2833 144.954 22.6833 145.274 23.19 145.474C23.6967 145.674 24.3467 145.774 25.14 145.774C25.9267 145.774 26.57 145.677 27.07 145.484C27.57 145.297 27.96 144.984 28.24 144.544C28.5267 144.097 28.72 143.52 28.82 142.814C28.9267 142.114 28.98 141.244 28.98 140.204C28.98 139.17 28.9167 138.304 28.79 137.604C28.67 136.91 28.46 136.35 28.16 135.924C27.86 135.504 27.4633 135.204 26.97 135.024C26.4833 134.844 25.8733 134.754 25.14 134.754C24.4 134.754 23.7833 134.844 23.29 135.024C22.79 135.204 22.39 135.504 22.09 135.924C21.7833 136.35 21.5667 136.907 21.44 137.594C21.3067 138.28 21.24 139.14 21.24 140.174Z" fill="#0E3863"/>
<path fill-rule="evenodd" clip-rule="evenodd" d="M25.11 147.864C23.93 147.864 22.94 147.717 22.14 147.424C21.32 147.124 20.66 146.654 20.16 146.014C19.6667 145.38 19.3167 144.584 19.11 143.624C18.91 142.684 18.81 141.554 18.81 140.234C18.81 138.92 18.92 137.79 19.14 136.844C19.3667 135.884 19.7367 135.09 20.25 134.464C20.77 133.837 21.44 133.377 22.26 133.084C23.06 132.804 24.02 132.664 25.14 132.664C26.26 132.664 27.2167 132.804 28.01 133.084C28.8167 133.377 29.4733 133.837 29.98 134.464C30.4867 135.09 30.8533 135.884 31.08 136.844C31.3 137.79 31.41 138.92 31.41 140.234C31.41 141.547 31.31 142.677 31.11 143.624C30.9033 144.577 30.5533 145.374 30.06 146.014C29.5533 146.654 28.8933 147.124 28.08 147.424C27.2733 147.717 26.2833 147.864 25.11 147.864ZM25.14 133.174C24.08 133.174 23.1767 133.307 22.43 133.574C21.7033 133.827 21.11 134.234 20.65 134.794C20.1833 135.354 19.8467 136.077 19.64 136.964C19.4267 137.87 19.32 138.96 19.32 140.234C19.32 141.52 19.4167 142.614 19.61 143.514C19.8033 144.394 20.1233 145.12 20.57 145.694C21.01 146.26 21.5933 146.677 22.32 146.944C23.06 147.21 23.99 147.344 25.11 147.344C26.2233 147.344 27.1533 147.21 27.9 146.944C28.6267 146.677 29.21 146.26 29.65 145.694C30.0967 145.12 30.4133 144.394 30.6 143.514C30.8 142.607 30.9 141.514 30.9 140.234C30.9 138.96 30.7933 137.87 30.58 136.964C30.3667 136.077 30.0333 135.354 29.58 134.794C29.1333 134.234 28.55 133.827 27.83 133.574C27.0967 133.307 26.2 133.174 25.14 133.174ZM25.14 146.024C24.32 146.024 23.6367 145.92 23.09 145.714C22.5367 145.494 22.0967 145.14 21.77 144.654C21.4567 144.174 21.2467 143.564 21.14 142.824C21.0333 142.11 20.98 141.227 20.98 140.174C20.98 139.127 21.0467 138.25 21.18 137.544C21.32 136.824 21.5533 136.234 21.88 135.774C22.2133 135.314 22.6533 134.984 23.2 134.784C23.7267 134.597 24.3733 134.5 25.14 134.494C25.9067 134.5 26.5467 134.597 27.06 134.784C27.6 134.984 28.0367 135.314 28.37 135.774C28.6967 136.234 28.9233 136.83 29.05 137.564C29.17 138.27 29.2333 139.15 29.24 140.204C29.24 141.244 29.1867 142.127 29.08 142.854C28.9667 143.6 28.76 144.207 28.46 144.674C28.1467 145.167 27.7133 145.517 27.16 145.724C26.6333 145.924 25.96 146.024 25.14 146.024ZM25.14 135.014C24.4333 135.014 23.8433 135.097 23.37 135.264C22.9233 135.424 22.5667 135.694 22.3 136.074C22.02 136.467 21.8167 136.99 21.69 137.644C21.5633 138.317 21.5 139.16 21.5 140.174C21.5 141.2 21.55 142.06 21.65 142.754C21.75 143.42 21.9333 143.96 22.2 144.374C22.4667 144.767 22.8267 145.054 23.28 145.234C23.76 145.42 24.38 145.514 25.14 145.514C25.9 145.514 26.5133 145.424 26.98 145.244C27.4267 145.077 27.7767 144.797 28.03 144.404C28.29 143.99 28.47 143.45 28.57 142.784C28.67 142.077 28.72 141.217 28.72 140.204C28.72 139.184 28.66 138.334 28.54 137.654C28.4267 136.994 28.23 136.467 27.95 136.074C27.6833 135.694 27.3267 135.424 26.88 135.264C26.42 135.097 25.84 135.014 25.14 135.014Z" fill="#0E3863"/>
<path fill-rule="evenodd" clip-rule="evenodd" d="M44.88 137.464V144.694C44.9333 145.394 45.48 145.81 46.52 145.944L46.43 147.604C44.9433 147.604 43.8233 147.227 43.07 146.474C41.3967 147.227 39.7033 147.604 37.99 147.604C36.69 147.604 35.7 147.237 35.02 146.504C34.34 145.77 34 144.717 34 143.344C34.0067 141.97 34.3567 140.957 35.05 140.304C35.75 139.657 36.8433 139.257 38.33 139.104L42.76 138.684V137.464C42.76 136.504 42.5533 135.817 42.14 135.404C41.7267 134.99 41.16 134.784 40.44 134.784C39.6867 134.784 38.92 134.807 38.14 134.854C37.36 134.9 36.5667 134.97 35.76 135.064L34.88 135.154L34.8 133.544C36.8133 133.13 38.6467 132.924 40.3 132.924C41.9 132.924 43.0633 133.284 43.79 134.004C44.5167 134.73 44.88 135.884 44.88 137.464ZM36.18 143.224C36.18 144.957 36.8967 145.824 38.33 145.824C39.59 145.824 40.85 145.607 42.11 145.174L42.76 144.954V140.294L38.58 140.684C37.7333 140.757 37.12 141.004 36.74 141.424C36.3667 141.837 36.18 142.437 36.18 143.224Z" fill="#0E3863"/>
<path fill-rule="evenodd" clip-rule="evenodd" d="M46.68 147.864H46.43C44.9567 147.864 43.82 147.504 43.02 146.784C41.36 147.504 39.6833 147.864 37.99 147.864C36.6167 147.864 35.5633 147.467 34.83 146.674C34.11 145.894 33.75 144.784 33.75 143.344C33.75 141.897 34.1233 140.82 34.87 140.114C35.6167 139.427 36.76 139.004 38.3 138.844L42.5 138.444V137.464C42.5 136.577 42.32 135.95 41.96 135.584C41.5933 135.224 41.0867 135.044 40.44 135.044C39.6933 135.044 38.9333 135.067 38.16 135.114C37.38 135.16 36.59 135.23 35.79 135.324L34.64 135.434L34.53 133.334L34.74 133.294C36.7733 132.874 38.6267 132.664 40.3 132.664C41.9667 132.664 43.19 133.05 43.97 133.824C44.7433 134.604 45.1333 135.817 45.14 137.464V144.694C45.15 144.884 45.2 145.514 46.55 145.684L46.78 145.714L46.68 147.864ZM40.45 134.524C41.2367 134.53 41.8633 134.764 42.33 135.224C42.7967 135.69 43.03 136.437 43.03 137.464V138.914L38.36 139.364C36.9333 139.51 35.89 139.887 35.23 140.494C34.59 141.094 34.27 142.044 34.27 143.344C34.27 144.65 34.5867 145.647 35.22 146.334C35.8467 147.007 36.7733 147.347 38 147.354C39.6733 147.347 41.3333 146.977 42.98 146.244L43.14 146.174L43.26 146.294C43.9267 146.954 44.9067 147.304 46.2 147.344L46.26 146.164C45.24 145.977 44.6967 145.494 44.63 144.714V137.464C44.63 135.957 44.2933 134.867 43.62 134.194C42.94 133.52 41.8367 133.18 40.31 133.174C38.7367 133.18 36.99 133.374 35.07 133.754L35.13 134.874L35.74 134.814C36.5467 134.72 37.3467 134.65 38.14 134.604C38.9267 134.55 39.6967 134.524 40.45 134.524ZM38.34 146.084C37.24 146.084 35.93 145.594 35.93 143.234C35.93 142.374 36.14 141.714 36.56 141.254C36.9867 140.787 37.6567 140.514 38.57 140.434L43.03 140.014V145.134L42.2 145.424C40.9133 145.864 39.6267 146.084 38.34 146.084ZM42.51 140.574L38.61 140.944C37.83 141.01 37.2733 141.227 36.94 141.594C36.6133 141.96 36.45 142.507 36.45 143.234C36.45 144.824 37.05 145.574 38.34 145.574C39.5733 145.574 40.8067 145.36 42.04 144.934L42.51 144.774V140.574Z" fill="#0E3863"/>
<path d="M48.04 133.204H50.3L53.6 145.484H54.65L58.07 133.204H60.24L56.26 147.324H52.02L48.04 133.204Z" fill="#0E3863"/>
<path fill-rule="evenodd" clip-rule="evenodd" d="M56.45 147.584H51.83L47.7 132.944H50.5L53.8 145.234H54.45L57.87 132.944H60.58L56.45 147.584ZM52.21 147.074H56.06L59.9 133.464H58.26L54.84 145.754H53.4L50.1 133.464H48.38L52.21 147.074Z" fill="#0E3863"/>
<path fill-rule="evenodd" clip-rule="evenodd" d="M73.23 137.464V144.694C73.29 145.394 73.8366 145.81 74.87 145.944L74.78 147.604C73.2933 147.604 72.1733 147.227 71.42 146.474C69.7466 147.227 68.0533 147.604 66.34 147.604C65.04 147.604 64.0533 147.237 63.38 146.504C62.7 145.77 62.36 144.717 62.36 143.344C62.36 141.97 62.7067 140.957 63.4 140.304C64.1 139.657 65.1933 139.257 66.68 139.104L71.11 138.684V137.464C71.11 136.504 70.9033 135.817 70.49 135.404C70.0766 134.99 69.5133 134.784 68.8 134.784C68.0466 134.784 67.28 134.807 66.5 134.854C65.7133 134.9 64.9167 134.97 64.11 135.064L63.23 135.154L63.15 133.544C65.1633 133.13 67 132.924 68.66 132.924C70.26 132.924 71.42 133.284 72.14 134.004C72.8667 134.73 73.23 135.884 73.23 137.464ZM64.53 143.224C64.53 144.957 65.2467 145.824 66.68 145.824C67.94 145.824 69.2 145.607 70.46 145.174L71.11 144.954V140.294L66.93 140.684C66.0833 140.757 65.4733 141.004 65.1 141.424C64.72 141.837 64.53 142.437 64.53 143.224Z" fill="#0E3863"/>
<path fill-rule="evenodd" clip-rule="evenodd" d="M75.03 147.864H74.78C73.3067 147.864 72.17 147.504 71.37 146.784C69.71 147.504 68.0333 147.864 66.34 147.864C64.9667 147.864 63.9167 147.467 63.19 146.674C62.4633 145.894 62.1 144.784 62.1 143.344C62.1 141.897 62.4767 140.82 63.23 140.114C63.97 139.427 65.11 139.004 66.65 138.844L70.86 138.444V137.464C70.8533 136.577 70.67 135.95 70.31 135.584C69.9433 135.224 69.44 135.044 68.8 135.044C68.0533 135.044 67.29 135.067 66.51 135.114C65.73 135.16 64.94 135.23 64.14 135.324L62.99 135.434L62.88 133.334L63.1 133.294C65.1333 132.874 66.9867 132.664 68.66 132.664C70.3267 132.664 71.55 133.05 72.33 133.824C73.1033 134.604 73.49 135.817 73.49 137.464V144.694C73.5 144.884 73.56 145.514 74.9 145.684L75.14 145.714L75.03 147.864ZM68.8 134.524C69.58 134.53 70.2033 134.764 70.67 135.224C71.1367 135.69 71.37 136.437 71.37 137.464V138.914L66.7 139.364C65.2733 139.51 64.2333 139.887 63.58 140.494C62.94 141.094 62.62 142.044 62.62 143.344C62.62 144.65 62.9333 145.647 63.56 146.334C64.1933 147.007 65.12 147.347 66.34 147.354C68.0133 147.347 69.6733 146.977 71.32 146.244L71.48 146.174L71.61 146.294C72.27 146.954 73.2467 147.304 74.54 147.344L74.6 146.164C73.58 145.977 73.0367 145.494 72.97 144.714V137.464C72.97 135.957 72.6333 134.867 71.96 134.194C71.2867 133.52 70.1867 133.18 68.66 133.174C67.08 133.18 65.3333 133.374 63.42 133.754L63.48 134.874L64.08 134.814C64.8867 134.72 65.6867 134.65 66.48 134.604C67.2667 134.55 68.04 134.524 68.8 134.524ZM66.68 146.084C65.58 146.084 64.27 145.594 64.27 143.234C64.2767 142.374 64.49 141.714 64.91 141.254C65.33 140.787 65.9967 140.514 66.91 140.434L71.37 140.014V145.134L70.55 145.424C69.2633 145.864 67.9733 146.084 66.68 146.084ZM70.85 140.574L66.96 140.944C66.18 141.01 65.6233 141.227 65.29 141.594C64.9567 141.96 64.79 142.507 64.79 143.234C64.79 144.824 65.39 145.574 66.68 145.574C67.9133 145.574 69.1467 145.36 70.38 144.934L70.85 144.774V140.574Z" fill="#0E3863"/>
<path d="M79.84 147.324H77.72V133.204H79.81V135.124C81.43 134.01 83.1533 133.267 84.98 132.894V135.034C84.5867 135.114 84.1767 135.22 83.75 135.354C83.3233 135.48 82.91 135.614 82.51 135.754C82.1033 135.9 81.73 136.047 81.39 136.194C81.05 136.347 80.77 136.48 80.55 136.594L79.84 136.964V147.324Z" fill="#0E3863"/>
<path fill-rule="evenodd" clip-rule="evenodd" d="M80.1 147.584H77.46V132.944H80.07V134.644C81.6033 133.664 83.2233 132.994 84.93 132.634L85.24 132.574V135.254L85.03 135.294C84.6433 135.367 84.2433 135.467 83.83 135.594C83.41 135.727 82.9967 135.864 82.59 136.004C82.1967 136.137 81.8333 136.28 81.5 136.434C81.16 136.58 80.88 136.71 80.66 136.824L80.1 137.114V147.584ZM77.98 147.074H79.58V136.804L80.43 136.364C80.6633 136.25 80.95 136.117 81.29 135.964C81.6367 135.81 82.0133 135.664 82.42 135.524C82.8267 135.377 83.2433 135.237 83.67 135.104C84.03 134.997 84.38 134.907 84.72 134.834V133.214C83.04 133.607 81.4533 134.317 79.96 135.344L79.55 135.614V133.464H77.98V147.074Z" fill="#0E3863"/>
<path fill-rule="evenodd" clip-rule="evenodd" d="M97.77 137.464V144.694C97.83 145.394 98.3767 145.81 99.41 145.944L99.33 147.604C97.8367 147.604 96.7167 147.227 95.97 146.474C94.29 147.227 92.5933 147.604 90.88 147.604C89.58 147.604 88.5933 147.237 87.92 146.504C87.24 145.77 86.9 144.717 86.9 143.344C86.9 141.97 87.2467 140.957 87.94 140.304C88.64 139.657 89.7333 139.257 91.22 139.104L95.65 138.684V137.464C95.65 136.504 95.4433 135.817 95.03 135.404C94.6167 134.99 94.0533 134.784 93.34 134.784C92.5867 134.784 91.82 134.807 91.04 134.854C90.2533 134.9 89.4567 134.97 88.65 135.064L87.78 135.154L87.69 133.544C89.7033 133.13 91.54 132.924 93.2 132.924C94.8 132.924 95.9633 133.284 96.69 134.004C97.41 134.73 97.77 135.884 97.77 137.464ZM89.07 143.224C89.07 144.957 89.7867 145.824 91.22 145.824C92.48 145.824 93.74 145.607 95 145.174L95.65 144.954V140.294L91.47 140.684C90.6233 140.757 90.0133 141.004 89.64 141.424C89.26 141.837 89.07 142.437 89.07 143.224Z" fill="#0E3863"/>
<path fill-rule="evenodd" clip-rule="evenodd" d="M99.57 147.864H99.33C97.85 147.864 96.71 147.504 95.91 146.784C94.25 147.504 92.5733 147.864 90.88 147.864C89.5066 147.864 88.4566 147.467 87.73 146.674C87.0033 145.894 86.64 144.784 86.64 143.344C86.64 141.897 87.0166 140.82 87.77 140.114C88.51 139.427 89.6533 139.004 91.2 138.844L95.4 138.444V137.464C95.4 136.577 95.2166 135.95 94.85 135.584C94.4833 135.224 93.98 135.044 93.34 135.044C92.5933 135.044 91.83 135.067 91.05 135.114C90.27 135.16 89.48 135.23 88.68 135.324L87.53 135.434L87.42 133.334L87.64 133.294C89.6733 132.874 91.5266 132.664 93.2 132.664C94.8666 132.664 96.09 133.05 96.87 133.824C97.6433 134.604 98.03 135.817 98.03 137.464V144.694C98.05 144.884 98.1 145.514 99.44 145.684L99.68 145.714L99.57 147.864ZM93.34 134.524C94.12 134.53 94.7433 134.764 95.21 135.224C95.6767 135.69 95.91 136.437 95.91 137.464V138.914L91.25 139.364C89.8167 139.51 88.7733 139.887 88.12 140.494C87.48 141.094 87.16 142.044 87.16 143.344C87.16 144.65 87.4767 145.647 88.11 146.334C88.7367 147.007 89.66 147.347 90.88 147.354C92.56 147.347 94.22 146.977 95.86 146.244L96.02 146.174L96.15 146.294C96.81 146.954 97.7867 147.304 99.08 147.344L99.14 146.164C98.12 145.977 97.58 145.494 97.52 144.714L97.51 137.464C97.51 135.957 97.1733 134.867 96.5 134.194C95.8267 133.52 94.7266 133.18 93.2 133.174C91.62 133.18 89.8733 133.374 87.96 133.754L88.02 134.874L88.63 134.814C89.43 134.72 90.2266 134.65 91.02 134.604C91.8066 134.55 92.58 134.524 93.34 134.524ZM91.22 146.084C90.12 146.084 88.82 145.594 88.82 143.234C88.82 142.374 89.03 141.714 89.45 141.254C89.87 140.787 90.5366 140.514 91.45 140.434L95.91 140.014V145.134L95.09 145.424C93.8033 145.864 92.5133 146.084 91.22 146.084ZM95.4 140.574L91.5 140.944C90.72 141.01 90.1633 141.227 89.83 141.594C89.4967 141.96 89.33 142.507 89.33 143.234C89.33 144.824 89.93 145.574 91.22 145.574C92.4533 145.574 93.6866 145.36 94.92 144.934L95.4 144.774V140.574Z" fill="#0E3863"/>
<path d="M104.38 135.854V147.324H102.26V133.204H104.35V134.194C105.877 133.347 107.337 132.924 108.73 132.924C109.67 132.924 110.447 133.04 111.06 133.274C111.673 133.507 112.163 133.897 112.53 134.444C112.897 134.99 113.15 135.707 113.29 136.594C113.43 137.474 113.5 138.564 113.5 139.864V147.324H111.41V139.924C111.41 138.944 111.37 138.124 111.29 137.464C111.203 136.804 111.047 136.277 110.82 135.884C110.593 135.49 110.283 135.214 109.89 135.054C109.49 134.894 108.98 134.814 108.36 134.814C107.76 134.814 107.127 134.904 106.46 135.084C105.787 135.257 105.273 135.43 104.92 135.604L104.38 135.854Z" fill="#0E3863"/>
<path fill-rule="evenodd" clip-rule="evenodd" d="M113.76 147.584H111.16V139.924C111.153 138.964 111.11 138.157 111.03 137.504C110.95 136.877 110.807 136.38 110.6 136.014C110.4 135.667 110.13 135.427 109.79 135.294C109.07 135.004 107.82 134.984 106.52 135.324C105.867 135.504 105.37 135.674 105.03 135.834L104.64 136.024V147.584H102V132.944H104.61V133.764C106.037 133.03 107.41 132.664 108.73 132.664C109.703 132.664 110.51 132.787 111.15 133.034C111.817 133.287 112.347 133.71 112.74 134.304C113.127 134.884 113.393 135.634 113.54 136.554C113.687 137.447 113.76 138.55 113.76 139.864V147.584ZM111.67 147.074H113.24V139.874C113.24 138.587 113.173 137.51 113.04 136.644C112.9 135.797 112.657 135.114 112.31 134.594C111.977 134.094 111.53 133.737 110.97 133.524C110.383 133.297 109.637 133.184 108.73 133.184C107.383 133.184 105.967 133.597 104.48 134.424L104.1 134.634V133.464H102.52V147.074H104.12V135.704L104.81 135.374C105.177 135.2 105.703 135.024 106.39 134.844C107.8 134.464 109.15 134.484 109.98 134.824C110.433 135.004 110.787 135.317 111.04 135.764C111.287 136.19 111.453 136.75 111.54 137.444C111.627 138.124 111.67 138.954 111.67 139.934V147.074Z" fill="#0E3863"/>
<path d="M137.42 133.204H139.54V147.324H137.42V133.204Z" fill="#0E3863"/>
<path fill-rule="evenodd" clip-rule="evenodd" d="M139.8 147.584H137.16V132.944H139.8V147.584ZM137.68 147.074H139.28V133.464H137.68V147.074Z" fill="#0E3863"/>
<path fill-rule="evenodd" clip-rule="evenodd" d="M150.16 132.924C151.12 132.924 151.923 133.05 152.57 133.304C153.223 133.557 153.75 133.97 154.15 134.544C154.557 135.117 154.85 135.87 155.03 136.804C155.21 137.737 155.3 138.88 155.3 140.234C155.3 141.587 155.19 142.737 154.97 143.684C154.757 144.624 154.39 145.38 153.87 145.954C153.35 146.527 152.667 146.947 151.82 147.214C150.973 147.474 149.91 147.604 148.63 147.604C148.237 147.604 147.713 147.587 147.06 147.554C146.413 147.514 145.63 147.457 144.71 147.384L143.92 147.294V127.894H146.01V133.904C147.477 133.25 148.86 132.924 150.16 132.924ZM148.6 145.714C149.527 145.714 150.287 145.614 150.88 145.414C151.473 145.22 151.94 144.9 152.28 144.454C152.613 144.014 152.843 143.444 152.97 142.744C153.09 142.05 153.15 141.204 153.15 140.204C153.15 139.21 153.093 138.367 152.98 137.674C152.867 136.987 152.683 136.434 152.43 136.014C152.177 135.587 151.847 135.28 151.44 135.094C151.04 134.907 150.537 134.814 149.93 134.814C148.817 134.814 147.697 135.02 146.57 135.434L146.01 135.634V145.574C146.61 145.607 147.127 145.64 147.56 145.674C147.993 145.7 148.34 145.714 148.6 145.714Z" fill="#0E3863"/>
<path fill-rule="evenodd" clip-rule="evenodd" d="M148.63 147.864C148.237 147.864 147.71 147.844 147.05 147.804C146.397 147.764 145.61 147.707 144.69 147.634L143.66 147.524V127.634H146.26V133.514C147.633 132.947 148.933 132.664 150.16 132.664C151.153 132.664 151.99 132.797 152.67 133.064C153.363 133.337 153.927 133.78 154.36 134.394C154.787 135 155.093 135.787 155.28 136.754C155.46 137.7 155.553 138.86 155.56 140.234C155.553 141.607 155.44 142.774 155.22 143.734C154.993 144.72 154.607 145.517 154.06 146.124C153.513 146.737 152.793 147.18 151.9 147.454C151.027 147.727 149.937 147.864 148.63 147.864ZM144.17 147.064L144.73 147.124C145.65 147.197 146.433 147.254 147.08 147.294C147.727 147.327 148.243 147.344 148.63 147.344C149.883 147.344 150.923 147.217 151.75 146.964C152.55 146.717 153.193 146.324 153.68 145.784C154.167 145.237 154.513 144.517 154.72 143.624C154.933 142.697 155.04 141.567 155.04 140.234C155.04 138.894 154.953 137.767 154.78 136.854C154.607 135.96 154.327 135.24 153.94 134.694C153.567 134.16 153.08 133.777 152.48 133.544C151.86 133.297 151.087 133.174 150.16 133.174C148.9 133.18 147.55 133.504 146.11 134.144L145.75 134.304V128.144H144.17V147.064ZM148.61 145.974C148.337 145.974 147.98 145.96 147.54 145.934L145.75 145.814V135.454L146.49 135.194C147.643 134.774 148.79 134.56 149.93 134.554C150.57 134.56 151.11 134.664 151.55 134.864C152.003 135.077 152.37 135.417 152.65 135.884C152.923 136.33 153.12 136.917 153.24 137.644C153.353 138.35 153.41 139.207 153.41 140.214C153.41 141.227 153.347 142.087 153.22 142.794C153.093 143.534 152.847 144.14 152.48 144.614C152.107 145.1 151.6 145.45 150.96 145.664C150.34 145.87 149.557 145.974 148.61 145.974ZM146.26 145.334L147.58 145.414C148 145.447 148.343 145.464 148.61 145.464C149.497 145.464 150.227 145.367 150.8 145.174C151.34 144.994 151.763 144.704 152.07 144.304C152.383 143.897 152.597 143.364 152.71 142.704C152.83 142.03 152.89 141.2 152.89 140.214C152.89 139.234 152.837 138.404 152.73 137.724C152.617 137.07 152.443 136.544 152.21 136.144C151.983 135.77 151.69 135.5 151.33 135.334C150.957 135.16 150.49 135.074 149.93 135.074C148.85 135.074 147.76 135.277 146.66 135.684L146.26 135.814V145.334Z" fill="#0E3863"/>
<path fill-rule="evenodd" clip-rule="evenodd" d="M169.05 137.464V144.694C169.11 145.394 169.657 145.81 170.69 145.944L170.6 147.604C169.113 147.604 167.993 147.227 167.24 146.474C165.567 147.227 163.873 147.604 162.16 147.604C160.86 147.604 159.87 147.237 159.19 146.504C158.517 145.77 158.18 144.717 158.18 143.344C158.18 141.97 158.527 140.957 159.22 140.304C159.92 139.657 161.013 139.257 162.5 139.104L166.93 138.684V137.464C166.93 136.504 166.723 135.817 166.31 135.404C165.897 134.99 165.333 134.784 164.62 134.784C163.867 134.784 163.097 134.807 162.31 134.854C161.53 134.9 160.737 134.97 159.93 135.064L159.05 135.154L158.97 133.544C160.983 133.13 162.82 132.924 164.48 132.924C166.08 132.924 167.24 133.284 167.96 134.004C168.687 134.73 169.05 135.884 169.05 137.464ZM160.35 143.224C160.35 144.957 161.067 145.824 162.5 145.824C163.76 145.824 165.02 145.607 166.28 145.174L166.93 144.954V140.294L162.75 140.684C161.903 140.757 161.293 141.004 160.92 141.424C160.54 141.837 160.35 142.437 160.35 143.224Z" fill="#0E3863"/>
<path fill-rule="evenodd" clip-rule="evenodd" d="M170.85 147.864H170.6C169.127 147.864 167.99 147.504 167.19 146.784C165.53 147.504 163.853 147.864 162.16 147.864C160.787 147.864 159.737 147.467 159.01 146.674C158.283 145.894 157.92 144.784 157.92 143.344C157.92 141.89 158.297 140.814 159.05 140.114C159.79 139.427 160.93 139.004 162.47 138.844L166.68 138.444V137.464C166.673 136.577 166.49 135.95 166.13 135.584C165.763 135.224 165.26 135.044 164.62 135.044C163.873 135.044 163.11 135.067 162.33 135.114C161.55 135.16 160.76 135.23 159.96 135.324L158.81 135.434L158.7 133.334L158.92 133.294C160.953 132.874 162.807 132.664 164.48 132.664C166.147 132.664 167.367 133.05 168.14 133.824C168.92 134.604 169.31 135.817 169.31 137.464V144.694C169.32 144.884 169.38 145.514 170.72 145.684L170.96 145.714L170.85 147.864ZM164.62 134.524C165.4 134.53 166.023 134.764 166.49 135.224C166.957 135.69 167.19 136.437 167.19 137.464V138.914L162.52 139.364C161.093 139.51 160.053 139.887 159.4 140.494C158.76 141.094 158.437 142.044 158.43 143.344C158.437 144.65 158.753 145.647 159.38 146.334C160.013 147.007 160.94 147.347 162.16 147.354C163.833 147.347 165.493 146.977 167.14 146.244L167.3 146.174L167.43 146.294C168.09 146.954 169.067 147.304 170.36 147.344L170.42 146.164C169.4 145.977 168.857 145.497 168.79 144.724V137.464C168.79 135.957 168.453 134.867 167.78 134.194C167.107 133.52 166.007 133.18 164.48 133.174C162.9 133.18 161.153 133.374 159.24 133.754L159.3 134.874L159.9 134.814C160.707 134.72 161.507 134.65 162.3 134.604C163.087 134.55 163.86 134.524 164.62 134.524ZM162.5 146.084C161.4 146.084 160.09 145.594 160.09 143.234C160.097 142.374 160.31 141.714 160.73 141.254C161.15 140.787 161.817 140.514 162.73 140.434L167.19 140.014V145.134L166.37 145.424C165.077 145.864 163.787 146.084 162.5 146.084ZM166.67 140.574L162.78 140.944C162 141.01 161.443 141.227 161.11 141.594C160.777 141.96 160.61 142.507 160.61 143.234C160.61 144.824 161.21 145.574 162.5 145.574C163.733 145.574 164.967 145.36 166.2 144.934L166.67 144.774V140.574Z" fill="#0E3863"/>
<path d="M182.35 133.204L178.79 145.484H177.86L174.33 133.204H172.21L176.22 147.324H178.31L176.48 153.594H178.6L184.47 133.204H182.35Z" fill="#0E3863"/>
<path fill-rule="evenodd" clip-rule="evenodd" d="M178.79 153.854H176.13L177.97 147.584H176.03L171.87 132.944H174.53L178.06 145.234H178.6L182.16 132.944H184.81L178.79 153.854ZM176.82 153.344H178.4L184.13 133.464H182.55L178.99 145.754H177.67L174.14 133.464H172.56L176.42 147.074H178.66L176.82 153.344Z" fill="#0E3863"/>
<path d="M121.95 129.664V127.734H134.93V130.284L124.49 144.884V145.444H134.93V147.404H121.95V144.884L132.37 130.284V129.664H121.95Z" fill="#0E3863"/>
<path fill-rule="evenodd" clip-rule="evenodd" d="M135.19 147.664H121.69V144.794L121.74 144.734L132.11 130.204V129.924H121.69V127.474H135.19V130.374L135.14 130.434L124.75 144.964V145.194H135.19V147.664ZM122.21 147.144H134.68V145.704H124.23V144.794L124.28 144.724L134.68 130.204V127.984H122.21V129.404H132.62V130.364L132.58 130.434L122.21 144.964V147.144Z" fill="#0E3863"/>
<path d="M134.73 109.424V96.7935L133.94 97.0736C132.59 97.5536 131.68 98.8436 131.68 100.284V112.394L126.63 114.084C125.24 114.554 124.3 115.864 124.31 117.334V118.074L129.83 116.224C132.76 115.244 134.73 112.514 134.73 109.424Z" fill="#0E3863"/>
<path fill-rule="evenodd" clip-rule="evenodd" d="M169.74 116.224L164.22 118.074V117.334C164.21 115.864 165.15 114.554 166.54 114.084L171.59 112.394V110.284H166.42C163.81 110.284 161.69 108.164 161.69 105.554V101.764C161.69 99.0535 163.89 96.8535 166.61 96.8535H174.64V107.284H186.95V100.284C186.95 98.8035 187.91 97.4935 189.31 97.0335L190 96.8135V103.314C190 107.184 186.85 110.334 182.98 110.334L174.58 110.374L174.53 110.654C174.07 113.254 172.24 115.384 169.74 116.224ZM171.59 99.8935H167.06C165.78 99.8935 164.74 100.944 164.74 102.214V104.764C164.74 106.124 165.85 107.244 167.21 107.244H171.59V99.8935Z" fill="#0E3863"/>
<path fill-rule="evenodd" clip-rule="evenodd" d="M145.93 116.704L140.41 118.184V117.554C140.41 116.034 141.42 114.684 142.89 114.264L147.78 112.874V110.284H142.62C140 110.284 137.88 108.164 137.88 105.554V101.764C137.88 99.0535 140.09 96.8535 142.8 96.8535H150.83V109.894C150.83 112.984 148.86 115.724 145.93 116.704ZM147.78 99.8935H143.25C141.97 99.8935 140.93 100.934 140.93 102.214V104.764C140.93 106.124 142.04 107.234 143.41 107.234H147.78V99.8935Z" fill="#0E3863"/>
<path d="M155.04 90.5936V110.304H158.08V86.6736L156.68 87.5835C155.65 88.2435 155.04 89.3836 155.04 90.5936Z" fill="#0E3863"/>
<path d="M123.99 90.5036V110.334H127.04V86.6736L125.55 87.6436C124.58 88.2636 123.99 89.3436 123.99 90.5036Z" fill="#0E3863"/>
<path d="M101.28 113.724H113.5C117.35 113.724 120.47 110.604 120.47 106.754V96.7735L119.78 96.9935C118.38 97.4535 117.42 98.7635 117.42 100.234V110.674H101.05C98.85 110.674 97.06 108.884 97.06 106.684V96.9035L96.58 97.0235C95.07 97.4135 94.01 98.7635 94.01 100.324V106.454C94.01 110.464 97.27 113.724 101.28 113.724Z" fill="#0E3863"/>
<path d="M181.19 98.5635L179.95 97.3235C179.63 97.0035 179.63 96.5035 179.95 96.1835L181.19 94.9435C181.51 94.6335 182.01 94.6335 182.33 94.9435L183.57 96.1835C183.89 96.5035 183.89 97.0035 183.57 97.3235L182.33 98.5635C182.01 98.8835 181.51 98.8835 181.19 98.5635Z" fill="#0E3863"/>
<path d="M107.28 98.5635L106.04 97.3235C105.72 97.0035 105.72 96.5035 106.04 96.1835L107.28 94.9435C107.6 94.6335 108.1 94.6335 108.42 94.9435L109.66 96.1835C109.98 96.5035 109.98 97.0035 109.66 97.3235L108.42 98.5635C108.1 98.8835 107.6 98.8835 107.28 98.5635Z" fill="#0E3863"/>
<path d="M163.61 80.4735H152.9C150.38 80.4735 148.33 82.5135 148.33 85.0435V87.3835L151.6 85.2335V83.7435H160.36C162.15 83.7435 163.61 82.2835 163.61 80.4935V80.4735Z" fill="#0E3863"/>
<path d="M90.19 109.794V96.8835L89.41 97.1635C88.05 97.6535 87.14 98.9335 87.14 100.374V112.764L82.23 114.314C80.81 114.764 79.84 116.084 79.85 117.574V118.274L85.37 116.424C88.3 115.444 90.19 112.884 90.19 109.794Z" fill="#0E3863"/>
<path d="M70.19 117.644L68.95 116.394C68.63 116.084 68.63 115.574 68.95 115.264L70.19 114.014C70.5 113.704 71.01 113.704 71.33 114.014L72.57 115.264C72.88 115.574 72.88 116.084 72.57 116.394L71.33 117.644C71.01 117.954 70.5 117.954 70.19 117.644Z" fill="#0E3863"/>
<path d="M59.4 117.644L58.16 116.394C57.85 116.084 57.85 115.574 58.16 115.264L59.4 114.014C59.72 113.704 60.22 113.704 60.54 114.014L61.78 115.264C62.1 115.574 62.1 116.084 61.78 116.394L60.54 117.644C60.22 117.954 59.72 117.954 59.4 117.644Z" fill="#0E3863"/>
<path d="M74.55 117.644L73.3 116.394C72.99 116.084 72.99 115.574 73.3 115.264L74.55 114.014C74.86 113.704 75.37 113.704 75.68 114.014L76.93 115.264C77.24 115.574 77.24 116.084 76.93 116.394L75.68 117.644C75.37 117.954 74.86 117.954 74.55 117.644Z" fill="#0E3863"/>
<path d="M30.58 117.644L29.33 116.394C29.02 116.084 29.02 115.574 29.33 115.264L30.58 114.014C30.89 113.704 31.4 113.704 31.71 114.014L32.96 115.264C33.27 115.574 33.27 116.084 32.96 116.394L31.71 117.644C31.4 117.954 30.89 117.954 30.58 117.644Z" fill="#0E3863"/>
<path d="M34.93 117.644L33.69 116.394C33.38 116.084 33.38 115.574 33.69 115.264L34.93 114.014C35.25 113.704 35.76 113.704 36.07 114.014L37.31 115.264C37.63 115.574 37.63 116.084 37.31 116.394L36.07 117.644C35.75 117.954 35.25 117.954 34.93 117.644Z" fill="#0E3863"/>
<path d="M82.98 103.394V96.8936L82.3 97.1135C80.89 97.5735 79.94 98.8835 79.94 100.364V107.364H70.42C70.2333 107.35 70.0167 107.344 69.77 107.344C66.28 107.344 65.97 104.994 65.94 104.504C65.9533 104.37 65.96 104.234 65.96 104.094V99.6236L65.28 99.8536C63.87 100.304 62.92 101.614 62.92 103.094V107.394H44.4V86.9536L42.96 87.8536C41.96 88.4736 41.36 89.5636 41.36 90.7436V103.424C41.36 107.304 44.5 110.444 48.37 110.444H59.62C61.76 110.444 63.74 109.344 64.91 107.564C65.19 109.214 66.6 110.444 68.3 110.444H68.31L75.97 110.404C79.84 110.404 82.98 107.264 82.98 103.394Z" fill="#0E3863"/>
<path d="M24.48 114.704L24.92 114.254V110.554L31.48 110.534C35.45 110.534 38.67 107.304 38.67 103.344V97.1136L37.26 97.7636C36.05 98.3236 35.28 99.5336 35.28 100.864V107.144H19.12C17.22 107.144 15.69 108.684 15.71 110.584L21.87 110.564V112.944L21.81 112.994C20.31 114.174 14.54 117.964 3.21 117.224L3.05 117.214V102.954L1.67 103.774C0.64 104.394 0 105.504 0 106.704V114.094C0 117.504 2.68 120.264 6.09 120.364C18.78 120.364 24.25 114.934 24.48 114.704Z" fill="#0E3863"/>
<path d="M87.94 92.8036L86.69 91.5536C86.38 91.2436 86.38 90.7336 86.69 90.4236L87.94 89.1736C88.25 88.8636 88.76 88.8636 89.07 89.1736L90.32 90.4236C90.63 90.7336 90.63 91.2436 90.32 91.5536L89.07 92.8036C88.76 93.1136 88.25 93.1136 87.94 92.8036Z" fill="#0E3863"/>
</svg>
